<?xml version="1.0" encoding="UTF-8"?>
<svg id="Capa_1" data-name="Capa 1" xmlns="http://www.w3.org/2000/svg" xmlns:xlink="http://www.w3.org/1999/xlink" viewBox="0 0 48.82 58.67">
  <defs>
    <style>
      .cls-1 {
        fill: url(#Degradado_sin_nombre_33-5);
      }

      .cls-2 {
        fill: url(#Degradado_sin_nombre_33);
      }

      .cls-3 {
        fill: url(#Degradado_sin_nombre_33-3);
      }

      .cls-4 {
        fill: url(#Degradado_sin_nombre_33-9);
      }

      .cls-5 {
        fill: url(#Degradado_sin_nombre_33-8);
      }

      .cls-6 {
        fill: url(#Degradado_sin_nombre_33-4);
      }

      .cls-7 {
        fill: url(#Degradado_sin_nombre_33-2);
      }

      .cls-8 {
        fill: url(#Degradado_sin_nombre_33-6);
      }

      .cls-9 {
        fill: url(#Degradado_sin_nombre_33-7);
      }
    </style>
    <linearGradient id="Degradado_sin_nombre_33" data-name="Degradado sin nombre 33" x1="0" y1="29.36" x2="35.67" y2="29.36" gradientUnits="userSpaceOnUse">
      <stop offset=".17" stop-color="#efc981"/>
      <stop offset=".25" stop-color="#efcd6f"/>
      <stop offset=".39" stop-color="#f2d749"/>
      <stop offset=".73" stop-color="#c58511"/>
      <stop offset=".9" stop-color="#e4b76c"/>
      <stop offset=".95" stop-color="#eec687"/>
    </linearGradient>
    <linearGradient id="Degradado_sin_nombre_33-2" data-name="Degradado sin nombre 33" x1="39.05" y1="29.32" x2="47.54" y2="29.32" xlink:href="#Degradado_sin_nombre_33"/>
    <linearGradient id="Degradado_sin_nombre_33-3" data-name="Degradado sin nombre 33" x1="22.07" y1="13.26" x2="32.23" y2="13.26" xlink:href="#Degradado_sin_nombre_33"/>
    <linearGradient id="Degradado_sin_nombre_33-4" data-name="Degradado sin nombre 33" x1="3.41" y1="37" x2="11.84" y2="37" xlink:href="#Degradado_sin_nombre_33"/>
    <linearGradient id="Degradado_sin_nombre_33-5" data-name="Degradado sin nombre 33" x1="14.27" y1="47.19" x2="21.4" y2="47.19" xlink:href="#Degradado_sin_nombre_33"/>
    <linearGradient id="Degradado_sin_nombre_33-6" data-name="Degradado sin nombre 33" x1="13.6" y1="37" x2="22.04" y2="37" xlink:href="#Degradado_sin_nombre_33"/>
    <linearGradient id="Degradado_sin_nombre_33-7" data-name="Degradado sin nombre 33" x1="4.2" y1="48" x2="11.09" y2="48" xlink:href="#Degradado_sin_nombre_33"/>
    <linearGradient id="Degradado_sin_nombre_33-8" data-name="Degradado sin nombre 33" x1="9.18" y1="50.41" x2="10.86" y2="50.41" xlink:href="#Degradado_sin_nombre_33"/>
    <linearGradient id="Degradado_sin_nombre_33-9" data-name="Degradado sin nombre 33" x1="4.43" y1="45.66" x2="6.11" y2="45.66" xlink:href="#Degradado_sin_nombre_33"/>
  </defs>
  <path class="cls-2" d="m0,29.31c0-7.52,0-15.03,0-22.55,0-1.9.97-2.86,2.87-2.86,6.61,0,13.22.01,19.83-.01,1.08,0,1.86.36,2.55,1.2,3.24,3.92,6.54,7.81,9.78,11.73.32.38.43.95.6,1.44.06.19.02.42.02.63,0,10.97,0,21.95,0,32.92,0,.35,0,.72-.07,1.06-.2,1.02-1.07,1.8-2.12,1.91-.27.03-.55.04-.82.04-9.88,0-19.75,0-29.63,0-.39,0-.78-.01-1.15-.1-1.11-.27-1.84-1.24-1.85-2.43-.01-1.68,0-3.36,0-5.04,0-5.98,0-11.96,0-17.94Zm1.7.02c0,7.53,0,15.07,0,22.6,0,.98.21,1.19,1.2,1.19,9.97,0,19.95,0,29.92,0,.88,0,1.13-.24,1.13-1.12,0-11.11,0-22.21-.01-33.32,0-.34-.15-.74-.36-1-3.19-3.84-6.4-7.67-9.6-11.51-.35-.43-.73-.6-1.29-.6-6.6.01-13.19,0-19.79,0-.16,0-.33-.01-.48.01-.39.06-.65.28-.7.69-.02.21-.02.42-.02.63,0,7.47,0,14.94,0,22.41Z"/>
  <path class="cls-7" d="m43.31,3.79c.49,1.45.95,2.82,1.4,4.19.89,2.68,1.79,5.35,2.67,8.04.09.28.15.6.15.9,0,11.69,0,23.37,0,35.06,0,1.86-.97,2.85-2.83,2.86-.95,0-1.91,0-2.86,0-1.81-.02-2.8-1-2.8-2.79,0-11.74,0-23.47,0-35.21,0-.22.03-.45.1-.66,1.32-3.98,2.65-7.96,3.98-11.94.04-.12.09-.23.18-.43Zm-2.53,13.72v28.81h1.62v-28.81h-1.62Zm5.01,28.81v-28.8h-1.61v28.8h1.61Zm-5.01,1.75c-.01.13-.03.23-.03.34,0,1.24,0,2.49,0,3.73,0,.7.29.98,1.02.98,1.02,0,2.04,0,3.05,0,.75,0,1.01-.27,1.02-1.03,0-1.21,0-2.42,0-3.63,0-.12-.02-.25-.04-.4h-5.02Zm2.57-38.74s-.07,0-.11-.01c-.71,2.14-1.42,4.28-2.15,6.45h4.4c-.72-2.17-1.43-4.3-2.14-6.44Z"/>
  <path class="cls-3" d="m32.23,17.49v1.66c-.14.01-.26.03-.39.03-2.37,0-4.75,0-7.12,0-1.56,0-2.62-.99-2.64-2.55-.03-3.02,0-6.04,0-9.06,0-.06.02-.13.03-.23h1.66v.54c0,2.83,0,5.65,0,8.48,0,.88.24,1.12,1.12,1.13,2.25,0,4.49,0,6.74,0,.19,0,.38,0,.6,0Z"/>
  <path class="cls-6" d="m3.41,37.87v-1.69h3.37v-3.39h1.69v3.35h3.38v1.7h-3.33v3.37h-1.71v-3.33h-3.4Z"/>
  <path class="cls-1" d="m20.16,43.61c.43.43.8.8,1.16,1.16-.78.77-1.55,1.54-2.4,2.37.88.84,1.68,1.6,2.48,2.37-.44.44-.81.82-1.2,1.21-.78-.79-1.55-1.56-2.33-2.35-.81.82-1.58,1.6-2.37,2.4-.41-.45-.76-.84-1.16-1.28.73-.69,1.53-1.45,2.34-2.22-.87-.86-1.64-1.63-2.42-2.4.43-.43.81-.81,1.25-1.25.77.78,1.54,1.56,2.35,2.38.77-.8,1.53-1.59,2.29-2.39Z"/>
  <path class="cls-8" d="m13.6,37.81v-1.62h8.44v1.62h-8.44Z"/>
  <path class="cls-9" d="m10.09,44.52c.32.34.69.73,1,1.06-1.95,1.95-3.93,3.93-5.9,5.9-.29-.31-.66-.71-.99-1.07,1.92-1.92,3.9-3.9,5.9-5.9Z"/>
  <path class="cls-5" d="m10.86,50.45c-.02.45-.42.82-.86.81-.47,0-.84-.41-.82-.89.02-.45.4-.82.85-.81.46,0,.85.43.83.89Z"/>
  <path class="cls-4" d="m6.11,45.67c0,.47-.42.86-.88.84-.45-.02-.81-.4-.8-.86,0-.46.37-.83.82-.84.46,0,.86.39.86.86Z"/>
</svg>