<?xml version="1.0" encoding="UTF-8"?>
<svg id="Capa_1" data-name="Capa 1" xmlns="http://www.w3.org/2000/svg" xmlns:xlink="http://www.w3.org/1999/xlink" viewBox="0 0 59.59 58.96">
  <defs>
    <style>
      .cls-1 {
        fill: url(#Degradado_sin_nombre_33);
      }

      .cls-2 {
        fill: url(#Degradado_sin_nombre_33-2);
      }
    </style>
    <linearGradient id="Degradado_sin_nombre_33" data-name="Degradado sin nombre 33" x1="1.73" y1="39.13" x2="58.32" y2="39.13" gradientUnits="userSpaceOnUse">
      <stop offset=".17" stop-color="#efc981"/>
      <stop offset=".25" stop-color="#efcd6f"/>
      <stop offset=".39" stop-color="#f2d749"/>
      <stop offset=".73" stop-color="#c58511"/>
      <stop offset=".9" stop-color="#e4b76c"/>
      <stop offset=".95" stop-color="#eec687"/>
    </linearGradient>
    <linearGradient id="Degradado_sin_nombre_33-2" data-name="Degradado sin nombre 33" x1="48.53" y1="11.38" x2="58.31" y2="11.38" xlink:href="#Degradado_sin_nombre_33"/>
  </defs>
  <path class="cls-1" d="m48.16,47.17c-.81,2.53-3.16,3.77-5.86,2.7-.88,2.65-1.84,3.4-4.58,3.56-.12,1.74-1.05,3.09-3.57,3.38-1.12-.52-2.22-1.05-3.33-1.58-1.03,2.45-2.62,3.02-4.95,1.85-8.51-4.28-7.74-3.66-14.29-10.65-.41-.44-.81-.66-1.45-.64-2.03.05-4.06.03-6.09.02-1.9-.01-2.68-1.26-2.16-3.61,1.08-4.83,1.03-9.81-.03-14.64-.47-2.14.36-3.37,2.13-3.38,2.14-.01,4.28-.05,6.41.03.54.02,1.15.3,1.59.64.36.28.62.33,1.01.18,2.59-1,5.2-1.97,7.79-3.01,4.18-1.68,8.42-1.81,12.72-.6,1.55.44,2.91,1.2,3.76,2.71,3.26.91,6.53,1.82,9.8,2.69.26.07.6-.12.88-.23.58-.23,1.15-.69,1.73-.71,2.13-.09,4.28-.06,6.41-.03,1.63.03,2.42,1.09,2.19,2.91-.65,5.24-.74,10.57-.01,15.79.26,1.88-.54,2.91-2.22,2.93-2.11.02-4.22.02-6.33,0-.5,0-.99-.18-1.56-.29ZM12.66,27.57s-.02.03-.02.08c0,5.53-.02,11.05-.01,16.58,1.81,1.9,3.56,3.86,5.47,5.66,2.68,2.54,6.17,3.74,9.38,5.42.22.11.86-.11.92-.3.09-.28-.05-.82-.29-.99-.69-.51-1.49-.88-2.23-1.32-.79-.46-1.03-1.04-.7-1.65.34-.64,1-.74,1.83-.32,2.29,1.16,4.59,2.3,6.88,3.46.55.27,1.08.34,1.41-.26.36-.64-.01-1.05-.57-1.38-1.79-1.06-3.58-2.13-5.37-3.2-.21-.12-.43-.24-.62-.39-.52-.4-.68-.92-.33-1.5.34-.57.87-.7,1.47-.42.29.14.57.31.84.49,2.09,1.37,4.34,2.42,6.65,3.34,1.1.43,1.99.19,2.43-.69.44-.88.12-1.74-.9-2.38-.37-.23-.74-.45-1.11-.68-1.76-1.07-3.52-2.12-5.27-3.21-.62-.39-.79-1.07-.42-1.6.41-.59.95-.66,1.56-.34,1.25.65,2.01,2.25,7.45-5.58-2.19,10.69,3.02,13.14,4.55,10.77.58-.9.35-1.96-.63-2.61-5.54-3.69-11.1-7.37-16.66-11.02-3.38,1.73-6.87,1.87-10.42.88-2.06-.58-3.57-2.41-3.73-4.44-.07-.85.2-1.39,1.04-1.68,3.04-1.04,6.05-2.17,9.11-3.14,2.68-.86,5.44-1.41,8.27-1.57-3.15-.8-6.3-1.1-9.42.02-3.53,1.26-7.02,2.64-10.58,3.98Zm34.72,15.81v-14.16c-3.43-.93-6.85-1.9-10.31-2.77-2.82-.7-5.69-.75-8.52-.01-2.64.69-5.26,1.46-7.86,2.26-1.39.42-2.73.99-4.1,1.49.32,1.1.98,1.74,1.95,2.02,3.43.97,6.78.77,9.91-1.42,2.4,1.66,4.85,3.24,7.28,4.85,3.89,2.58,7.78,5.16,11.66,7.74Zm2.34,1.78h6.28v-17.02h-6.28v17.02Zm-39.42-1.67v-17h-6.25v17h6.25Z"/>
  <path class="cls-2" d="m52.3,3.53c0-.36-.02-.82,0-1.28.04-.74.52-1.21,1.18-1.16.71.05,1.06.48,1.07,1.18.01.46,0,.92,0,1.31.64.32,1.26.54,1.79.9,1.19.79,1.9,1.91,1.95,3.37.03.76-.39,1.28-1.03,1.3-1.43.04-1.51-1.65-.93-3.84-2.05.16-5.5.38-5.53,2.7-.01.83.54,1.27,1.2,1.58.63.3,1.3.51,1.96.76.61.23,1.24.4,1.81.69,1.52.77,2.57,1.9,2.52,3.73-.04,1.81-1,3.03-2.55,3.85-.35.19-.75.3-1.2.48,0,.45.02.93,0,1.41-.03.68-.5,1.18-1.11,1.15-.7-.03-1.09-.44-1.14-1.13-.03-.48,0-.97,0-1.47-1.25-.37-2.36-.91-2.99-2.02-.38-.68-.6-1.49-.74-2.27-.11-.63.3-1.08.97-1.17.63-.09,1.13.32,1.26.99.39,1.99,2.27,2.91,4.03,1.96.74-.4,1.21-.98,1.22-1.86,0-.84-.54-1.27-1.2-1.57-.56-.26-1.16-.44-1.74-.67-.82-.33-1.69-.6-2.45-1.05-2.67-1.56-2.86-4.85-.4-6.74.57-.44,1.26-.71,2.03-1.14Z"/>
</svg>