<?xml version="1.0" encoding="UTF-8"?>
<svg id="Capa_1" data-name="Capa 1" xmlns="http://www.w3.org/2000/svg" xmlns:xlink="http://www.w3.org/1999/xlink" viewBox="0 0 366.7 147.44">
  <defs>
    <style>
      .cls-1 {
        letter-spacing: -.07em;
      }

      .cls-1, .cls-2 {
        font-size: 32.77px;
      }

      .cls-3 {
        letter-spacing: .46em;
      }

      .cls-4 {
        fill: url(#Degradado_sin_nombre_69-10);
      }

      .cls-5 {
        fill: url(#Degradado_sin_nombre_73);
      }

      .cls-6 {
        letter-spacing: -.06em;
      }

      .cls-7 {
        fill: url(#Degradado_sin_nombre_69-3);
      }

      .cls-8, .cls-9 {
        font-family: DMSans-Bold, 'DM Sans';
        font-weight: 700;
      }

      .cls-10 {
        fill: url(#Degradado_sin_nombre_69-2);
      }

      .cls-9 {
        font-size: 18.91px;
      }

      .cls-11 {
        letter-spacing: 0em;
      }

      .cls-12 {
        fill: url(#Degradado_sin_nombre_69-4);
      }

      .cls-13 {
        fill: url(#Degradado_sin_nombre_69-6);
      }

      .cls-14 {
        fill: url(#Degradado_sin_nombre_69-8);
      }

      .cls-15 {
        font-size: 44.12px;
      }

      .cls-16 {
        fill: url(#Degradado_sin_nombre_69-11);
      }

      .cls-17 {
        fill: url(#Degradado_sin_nombre_69-5);
      }

      .cls-18 {
        fill: url(#Degradado_sin_nombre_69);
      }

      .cls-19 {
        fill: url(#Degradado_sin_nombre_72);
      }

      .cls-20 {
        fill: url(#Degradado_sin_nombre_69-7);
      }

      .cls-21 {
        font-size: 15.13px;
      }

      .cls-22 {
        fill: url(#Degradado_sin_nombre_69-9);
      }

      .cls-23 {
        letter-spacing: .52em;
      }

      .cls-24 {
        letter-spacing: .52em;
      }
    </style>
    <linearGradient id="Degradado_sin_nombre_72" data-name="Degradado sin nombre 72" x1="231.62" y1="21.26" x2="229.19" y2="88.61" gradientUnits="userSpaceOnUse">
      <stop offset=".26" stop-color="#d9a338"/>
      <stop offset=".63" stop-color="#fae79c"/>
      <stop offset=".89" stop-color="#d9a338"/>
      <stop offset="1" stop-color="#b1872e"/>
    </linearGradient>
    <linearGradient id="Degradado_sin_nombre_73" data-name="Degradado sin nombre 73" x1="230.87" y1="91.59" x2="231.29" y2="109.64" gradientUnits="userSpaceOnUse">
      <stop offset="0" stop-color="#d9a338"/>
      <stop offset=".69" stop-color="#fae8a1"/>
      <stop offset="1" stop-color="#b1872e"/>
    </linearGradient>
    <linearGradient id="Degradado_sin_nombre_69" data-name="Degradado sin nombre 69" x1="33.13" y1="68.52" x2="98.91" y2="68.52" gradientUnits="userSpaceOnUse">
      <stop offset="0" stop-color="#d9a338"/>
      <stop offset=".33" stop-color="#f7edda"/>
      <stop offset=".64" stop-color="#d9a338"/>
      <stop offset="1" stop-color="#b1872e"/>
    </linearGradient>
    <linearGradient id="Degradado_sin_nombre_69-2" data-name="Degradado sin nombre 69" x1="31.89" y1="68.27" x2="100.09" y2="68.27" xlink:href="#Degradado_sin_nombre_69"/>
    <linearGradient id="Degradado_sin_nombre_69-3" data-name="Degradado sin nombre 69" x1="30.64" y1="67.99" x2="101.7" y2="67.99" xlink:href="#Degradado_sin_nombre_69"/>
    <linearGradient id="Degradado_sin_nombre_69-4" data-name="Degradado sin nombre 69" x1="29.41" y1="67.7" x2="103.34" y2="67.7" xlink:href="#Degradado_sin_nombre_69"/>
    <linearGradient id="Degradado_sin_nombre_69-5" data-name="Degradado sin nombre 69" x1="28.18" y1="67.37" x2="105.01" y2="67.37" xlink:href="#Degradado_sin_nombre_69"/>
    <linearGradient id="Degradado_sin_nombre_69-6" data-name="Degradado sin nombre 69" x1="26.96" y1="67.02" x2="106.69" y2="67.02" xlink:href="#Degradado_sin_nombre_69"/>
    <linearGradient id="Degradado_sin_nombre_69-7" data-name="Degradado sin nombre 69" x1="25.75" y1="66.65" x2="108.4" y2="66.65" xlink:href="#Degradado_sin_nombre_69"/>
    <linearGradient id="Degradado_sin_nombre_69-8" data-name="Degradado sin nombre 69" x1="24.57" y1="66.24" x2="110.13" y2="66.24" xlink:href="#Degradado_sin_nombre_69"/>
    <linearGradient id="Degradado_sin_nombre_69-9" data-name="Degradado sin nombre 69" x1="23.4" y1="65.81" x2="111.87" y2="65.81" xlink:href="#Degradado_sin_nombre_69"/>
    <linearGradient id="Degradado_sin_nombre_69-10" data-name="Degradado sin nombre 69" x1="22.26" y1="65.35" x2="113.63" y2="65.35" xlink:href="#Degradado_sin_nombre_69"/>
    <linearGradient id="Degradado_sin_nombre_69-11" data-name="Degradado sin nombre 69" x1="21.15" y1="64.86" x2="115.39" y2="64.86" xlink:href="#Degradado_sin_nombre_69"/>
  </defs>
  <g>
    <g>
      <text class="cls-8" transform="translate(133.57 56.2) scale(1.12 1)"><tspan class="cls-15"><tspan x="0" y="0">G</tspan><tspan class="cls-6" x="34.1" y="0">L</tspan><tspan x="55.63" y="0">O</tspan><tspan class="cls-11" x="90.53" y="0">B</tspan><tspan x="118.1" y="0">AL</tspan></tspan><tspan class="cls-2" x="0" y="31.09">CON</tspan><tspan class="cls-1" x="73.71" y="31.09">T</tspan><tspan class="cls-2" x="90.65" y="31.09">ABLE</tspan><tspan class="cls-21" x="171.3" y="31.09"> </tspan></text>
      <g>
        <path class="cls-19" d="m152.05,56.73c-3.26,0-6.11-.66-8.55-1.99-2.44-1.32-4.33-3.17-5.68-5.54-1.35-2.37-2.03-5.12-2.03-8.27s.7-5.98,2.1-8.4c1.4-2.43,3.39-4.32,5.98-5.69,2.58-1.37,5.66-2.05,9.21-2.05,4.05,0,7.41.87,10.08,2.6,2.67,1.74,4.4,4.13,5.19,7.19h-7.07c-.53-1.44-1.48-2.57-2.87-3.38-1.38-.81-3.16-1.21-5.34-1.21-3.46,0-6.13.98-8,2.93-1.88,1.96-2.82,4.64-2.82,8.05s.93,6.05,2.79,7.92c1.86,1.87,4.39,2.8,7.58,2.8s5.49-.76,7.09-2.27c1.6-1.51,2.56-3.51,2.89-5.98h-8.75v-4.24h15.12v16.99h-5.83l-.49-4.06c-1.12,1.47-2.52,2.6-4.2,3.4-1.68.79-3.82,1.19-6.42,1.19Z"/>
        <path class="cls-19" d="m175.13,56.2v-30.88h6.32v26.47h15.32v4.41h-21.64Z"/>
        <path class="cls-19" d="m215.45,56.73c-3.46,0-6.48-.68-9.07-2.03-2.59-1.35-4.61-3.23-6.08-5.62-1.47-2.4-2.2-5.17-2.2-8.32s.73-5.92,2.2-8.32c1.46-2.4,3.49-4.27,6.08-5.62,2.58-1.35,5.61-2.03,9.07-2.03s6.44.68,9.04,2.03c2.6,1.35,4.63,3.23,6.08,5.62,1.45,2.4,2.17,5.17,2.17,8.32s-.72,5.92-2.17,8.32c-1.45,2.4-3.48,4.27-6.08,5.62-2.6,1.35-5.62,2.03-9.04,2.03Zm0-5.07c3.29,0,5.92-.97,7.88-2.91,1.96-1.94,2.94-4.6,2.94-7.98s-.98-6.04-2.94-7.99c-1.96-1.94-4.59-2.91-7.88-2.91s-5.93.97-7.91,2.91c-1.98,1.94-2.96,4.6-2.96,7.99s.99,6.04,2.96,7.98c1.98,1.94,4.61,2.91,7.91,2.91Z"/>
        <path class="cls-19" d="m238.32,56.2v-30.88h13.88c3.59,0,6.33.74,8.23,2.23,1.89,1.49,2.84,3.39,2.84,5.71,0,1.94-.58,3.49-1.75,4.65-1.17,1.16-2.59,1.95-4.27,2.36,1.98.35,3.61,1.23,4.89,2.62s1.93,3.02,1.93,4.88c0,2.44-.99,4.46-2.96,6.04s-4.78,2.38-8.4,2.38h-14.38Zm6.33-17.91h6.62c1.78,0,3.14-.37,4.1-1.1.96-.73,1.43-1.78,1.43-3.13s-.47-2.32-1.41-3.07c-.94-.75-2.35-1.12-4.22-1.12h-6.52v8.43Zm0,13.32h7.07c1.88,0,3.33-.39,4.37-1.17,1.04-.78,1.56-1.88,1.56-3.29s-.54-2.57-1.63-3.4c-1.09-.82-2.55-1.24-4.4-1.24h-6.97v9.09Z"/>
        <path class="cls-19" d="m266.98,56.2l12.65-30.88h7.12l12.65,30.88h-6.72l-2.77-7.15h-13.49l-2.82,7.15h-6.62Zm11.17-11.56h10.03l-5.04-12.84-4.99,12.84Z"/>
        <path class="cls-19" d="m303.84,56.2v-30.88h6.32v26.47h15.32v4.41h-21.64Z"/>
        <path class="cls-19" d="m147.7,87.69c-2.59,0-4.82-.5-6.68-1.49s-3.29-2.38-4.29-4.16c-1-1.78-1.5-3.84-1.5-6.18s.5-4.4,1.5-6.19,2.44-3.19,4.29-4.19,4.09-1.51,6.68-1.51c3.08,0,5.61.68,7.58,2.05,1.97,1.37,3.2,3.28,3.69,5.75h-5.18c-.32-1.25-1-2.22-2.04-2.93-1.04-.71-2.42-1.06-4.13-1.06-2.37,0-4.23.72-5.58,2.16s-2.02,3.42-2.02,5.93.67,4.48,2.02,5.92c1.35,1.43,3.21,2.15,5.58,2.15,1.71,0,3.09-.33,4.13-1,1.04-.67,1.72-1.59,2.04-2.77h5.18c-.49,2.36-1.72,4.21-3.69,5.54-1.97,1.33-4.5,2-7.58,2Z"/>
        <path class="cls-19" d="m175.16,87.69c-2.57,0-4.81-.5-6.74-1.51-1.92-1-3.43-2.4-4.51-4.18-1.09-1.78-1.63-3.84-1.63-6.18s.54-4.4,1.63-6.18c1.09-1.78,2.59-3.17,4.51-4.18,1.92-1,4.17-1.51,6.74-1.51s4.78.5,6.72,1.51c1.93,1,3.44,2.4,4.51,4.18,1.08,1.78,1.62,3.84,1.62,6.18s-.54,4.4-1.62,6.18c-1.08,1.78-2.58,3.17-4.51,4.18-1.93,1.01-4.17,1.51-6.72,1.51Zm0-3.77c2.45,0,4.4-.72,5.85-2.16s2.18-3.42,2.18-5.93-.73-4.49-2.18-5.93-3.41-2.16-5.85-2.16-4.4.72-5.87,2.16c-1.47,1.44-2.2,3.42-2.2,5.93s.73,4.49,2.2,5.93c1.47,1.44,3.42,2.16,5.87,2.16Z"/>
        <path class="cls-19" d="m192.15,87.29v-22.94h4.7l12.08,16.16v-16.16h4.7v22.94h-4.7l-12.08-16.12v16.12h-4.7Z"/>
        <path class="cls-19" d="m224.6,87.29v-19.57h-7.49v-3.38h19.71v3.38h-7.53v19.57h-4.7Z"/>
        <path class="cls-19" d="m235.94,87.29l9.4-22.94h5.29l9.4,22.94h-4.99l-2.05-5.31h-10.02l-2.09,5.31h-4.92Zm8.29-8.59h7.45l-3.74-9.54-3.71,9.54Z"/>
        <path class="cls-19" d="m263.32,87.29v-22.94h10.31c2.67,0,4.7.55,6.11,1.65,1.41,1.1,2.11,2.52,2.11,4.24,0,1.44-.44,2.59-1.3,3.46-.87.86-1.93,1.45-3.17,1.75,1.47.26,2.68.91,3.63,1.95s1.43,2.24,1.43,3.62c0,1.81-.73,3.31-2.2,4.49-1.47,1.18-3.55,1.77-6.24,1.77h-10.68Zm4.7-13.31h4.92c1.32,0,2.34-.27,3.05-.82.71-.55,1.06-1.32,1.06-2.33s-.35-1.72-1.05-2.28-1.74-.84-3.14-.84h-4.84v6.26Zm0,9.9h5.25c1.39,0,2.48-.29,3.25-.87.77-.58,1.16-1.39,1.16-2.44s-.4-1.91-1.21-2.52c-.81-.61-1.9-.92-3.27-.92h-5.17v6.75Z"/>
        <path class="cls-19" d="m286.49,87.29v-22.94h4.7v19.66h11.38v3.28h-16.08Z"/>
        <path class="cls-19" d="m306.71,87.29v-22.94h16.77v3.38h-12.08v6.29h10.97v3.28h-10.97v6.62h12.08v3.38h-16.77Z"/>
      </g>
    </g>
    <g>
      <text class="cls-9" transform="translate(136.12 107.72) scale(1.12 1)"><tspan class="cls-24" x="0" y="0">CO</tspan><tspan class="cls-3" x="48.71" y="0">L</tspan><tspan class="cls-23" x="67.84" y="0">OMBIA</tspan></text>
      <g>
        <path class="cls-5" d="m144.28,107.94c-1.5,0-2.78-.29-3.85-.86s-1.9-1.37-2.48-2.4c-.58-1.03-.87-2.22-.87-3.56s.29-2.54.87-3.57c.58-1.03,1.4-1.84,2.48-2.42s2.36-.87,3.85-.87c1.78,0,3.24.39,4.37,1.18,1.14.79,1.85,1.89,2.13,3.32h-2.99c-.18-.72-.58-1.28-1.17-1.69-.6-.41-1.39-.61-2.38-.61-1.37,0-2.44.42-3.22,1.25s-1.16,1.97-1.16,3.42.39,2.59,1.16,3.41c.78.83,1.85,1.24,3.22,1.24.99,0,1.78-.19,2.38-.58.6-.38.99-.92,1.17-1.6h2.99c-.28,1.36-.99,2.43-2.13,3.2-1.14.77-2.59,1.15-4.37,1.15Z"/>
        <path class="cls-5" d="m171.21,107.94c-1.48,0-2.78-.29-3.89-.87-1.11-.58-1.98-1.38-2.6-2.41-.63-1.03-.94-2.21-.94-3.56s.31-2.54.94-3.56c.63-1.03,1.5-1.83,2.6-2.41s2.4-.87,3.89-.87,2.76.29,3.88.87,1.98,1.38,2.61,2.41c.62,1.03.93,2.22.93,3.56s-.31,2.54-.93,3.56c-.62,1.03-1.49,1.83-2.61,2.41-1.12.58-2.41.87-3.88.87Zm0-2.17c1.41,0,2.54-.42,3.38-1.25s1.26-1.97,1.26-3.42-.42-2.59-1.26-3.42c-.84-.83-1.96-1.25-3.38-1.25s-2.54.42-3.39,1.25c-.85.83-1.27,1.97-1.27,3.42s.42,2.59,1.27,3.42c.85.83,1.98,1.25,3.39,1.25Z"/>
        <path class="cls-5" d="m192.11,107.72v-13.24h2.71v11.34h6.56v1.89h-9.28Z"/>
        <path class="cls-5" d="m220.49,107.94c-1.48,0-2.78-.29-3.89-.87-1.11-.58-1.98-1.38-2.6-2.41-.63-1.03-.94-2.21-.94-3.56s.31-2.54.94-3.56c.63-1.03,1.5-1.83,2.6-2.41,1.11-.58,2.4-.87,3.89-.87s2.76.29,3.88.87,1.98,1.38,2.6,2.41c.62,1.03.93,2.22.93,3.56s-.31,2.54-.93,3.56c-.62,1.03-1.49,1.83-2.6,2.41-1.12.58-2.41.87-3.88.87Zm0-2.17c1.41,0,2.54-.42,3.38-1.25s1.26-1.97,1.26-3.42-.42-2.59-1.26-3.42c-.84-.83-1.97-1.25-3.38-1.25s-2.54.42-3.39,1.25c-.85.83-1.27,1.97-1.27,3.42s.42,2.59,1.27,3.42,1.98,1.25,3.39,1.25Z"/>
        <path class="cls-5" d="m241.39,107.72v-13.24h3.22l4.72,8.4,4.66-8.4h3.22v13.24h-2.71v-9.13l-4.13,7.24h-2.14l-4.13-7.24v9.13h-2.71Z"/>
        <path class="cls-5" d="m271.18,107.72v-13.24h5.95c1.54,0,2.71.32,3.53.96.81.64,1.22,1.45,1.22,2.45,0,.83-.25,1.5-.75,2-.5.5-1.11.83-1.83,1.01.85.15,1.55.53,2.1,1.12.55.6.83,1.3.83,2.09,0,1.05-.42,1.91-1.27,2.59s-2.05,1.02-3.6,1.02h-6.16Zm2.71-7.68h2.84c.76,0,1.35-.16,1.76-.47.41-.31.62-.76.62-1.34s-.2-.99-.6-1.31-1.01-.48-1.81-.48h-2.8v3.61Zm0,5.71h3.03c.8,0,1.43-.17,1.87-.5s.67-.8.67-1.41-.23-1.1-.7-1.46c-.46-.35-1.09-.53-1.88-.53h-2.99v3.9Z"/>
        <path class="cls-5" d="m295.64,107.72v-13.24h2.71v13.24h-2.71Z"/>
        <path class="cls-5" d="m311.38,107.72l5.42-13.24h3.05l5.42,13.24h-2.88l-1.19-3.06h-5.78l-1.21,3.06h-2.84Zm4.79-4.95h4.3l-2.16-5.5-2.14,5.5Z"/>
      </g>
    </g>
  </g>
  <g>
    <path class="cls-18" d="m58.53,100.83s-.07-.02-.1-.05l-25.27-30.72s-.04-.11,0-.16l24.63-33.64s.08-.06.14-.05l40.49,9.93c.06.01.1.07.1.12l.39,39.78c0,.05-.03.1-.09.12l-40.25,14.65s-.03,0-.04,0Zm-25.1-30.86l25.14,30.57,40.08-14.59-.39-39.58-40.31-9.89-24.52,33.49Z"/>
    <path class="cls-10" d="m56.94,101.56s-.08-.02-.1-.05l-24.93-32.56s-.04-.11,0-.16l26.59-33.77s.09-.06.14-.04l41.36,11.69c.06.02.1.07.09.13l-1.03,41c0,.05-.04.1-.09.12l-41.99,13.64s-.03,0-.04,0Zm-24.76-32.69l24.81,32.41,41.82-13.59,1.02-40.8-41.18-11.64-26.47,33.62Z"/>
    <path class="cls-7" d="m55.28,102.26s-.08-.02-.11-.05l-24.51-34.45s-.03-.11,0-.16l28.61-33.84s.09-.06.14-.04l42.19,13.53c.06.02.09.07.09.13l-2.53,42.2c0,.05-.04.1-.09.12l-43.76,12.55s-.02,0-.04,0Zm-24.35-34.57l24.4,34.29,43.58-12.5,2.52-42.01-42.01-13.48-28.49,33.69Z"/>
    <path class="cls-12" d="m53.55,102.93s-.08-.02-.11-.06l-24.01-36.37s-.03-.11.01-.16l30.69-33.83s.09-.05.14-.03l42.98,15.46c.06.02.09.08.09.13l-4.13,43.39c0,.05-.04.1-.1.11l-45.53,11.35s-.02,0-.03,0Zm-23.85-36.49l23.91,36.21,45.36-11.31,4.11-43.2-42.81-15.4-30.57,33.69Z"/>
    <path class="cls-17" d="m51.74,103.55s-.09-.02-.11-.06l-23.43-38.34c-.03-.05-.02-.12.02-.16L61.05,31.24s.09-.05.14-.03l43.73,17.48c.05.02.09.08.08.14l-5.81,44.55c0,.05-.05.1-.1.11l-47.32,10.06s-.02,0-.03,0Zm-23.27-38.45l23.33,38.17,47.14-10.02,5.79-44.36-43.56-17.41-32.71,33.62Z"/>
    <path class="cls-13" d="m49.85,104.12s-.09-.02-.11-.07l-22.76-40.34c-.03-.05-.02-.12.02-.16L62.05,29.96s.09-.05.14-.02l44.43,19.58c.05.02.09.08.08.14l-7.59,45.7c0,.05-.05.1-.11.11l-49.12,8.66s-.02,0-.02,0Zm-22.6-40.45l22.67,40.18,48.94-8.63,7.56-45.51-44.25-19.5L27.25,63.67Z"/>
    <path class="cls-20" d="m47.88,104.64s-.09-.03-.11-.07l-22-42.38c-.03-.05-.02-.12.03-.16L63.12,28.68s.1-.04.14-.02l45.07,21.77c.05.03.08.08.07.14l-9.47,46.81c-.01.05-.05.09-.11.1l-50.92,7.16s-.01,0-.02,0Zm-21.84-42.48l21.91,42.21,50.74-7.13,9.43-46.62-44.9-21.69L26.04,62.16Z"/>
    <path class="cls-14" d="m45.84,105.11s-.1-.03-.12-.07l-21.14-44.46c-.03-.05-.01-.12.03-.16l39.65-33.02s.1-.04.14-.02l45.65,24.05c.05.03.08.09.07.14l-11.44,47.88c-.01.05-.06.09-.11.1l-52.72,5.54s0,0-.01,0Zm-20.98-44.55l21.06,44.29,52.54-5.52,11.39-47.7-45.48-23.97L24.86,60.56Z"/>
    <path class="cls-22" d="m43.72,105.52c-.05,0-.1-.03-.12-.08l-20.18-46.57c-.02-.05,0-.12.04-.15l42.04-32.59s.1-.04.14-.01l46.17,26.42c.05.03.08.09.06.15l-13.51,48.92c-.01.05-.06.09-.12.09l-54.52,3.81s0,0,0,0Zm-20.03-46.66l20.11,46.39,54.33-3.8,13.46-48.74-46.01-26.33L23.69,58.86Z"/>
    <path class="cls-4" d="m41.51,105.86c-.05,0-.1-.03-.12-.08l-19.12-48.7c-.02-.06,0-.12.05-.15l44.49-32.07s.1-.03.14,0l46.62,28.89c.05.03.07.09.06.15l-15.68,49.92c-.02.05-.06.09-.12.09l-56.3,1.97s0,0,0,0Zm-18.96-48.79l19.05,48.53,56.12-1.96,15.62-49.74-46.46-28.79-44.34,31.96Z"/>
    <path class="cls-16" d="m97.31,106.14h-58.08c-.05,0-.1-.03-.12-.09l-17.95-50.87c-.02-.06,0-.12.05-.15l46.99-31.44s.1-.03.14,0l46.99,31.44s.07.09.05.15l-17.95,50.87c-.02.05-.07.09-.12.09Zm-57.99-.26h57.9l17.88-50.69-46.83-31.33-46.83,31.33,17.88,50.69Z"/>
  </g>
</svg>