<?xml version="1.0" encoding="UTF-8"?>
<svg id="Capa_1" data-name="Capa 1" xmlns="http://www.w3.org/2000/svg" xmlns:xlink="http://www.w3.org/1999/xlink" viewBox="0 0 150.86 22.21">
  <defs>
    <style>
      .cls-1 {
        fill: url(#Degradado_sin_nombre_69-3);
      }

      .cls-2 {
        fill: url(#Degradado_sin_nombre_69-2);
      }

      .cls-3 {
        fill: url(#Degradado_sin_nombre_69-4);
      }

      .cls-4 {
        fill: url(#Degradado_sin_nombre_69-6);
      }

      .cls-5 {
        fill: url(#Degradado_sin_nombre_69-5);
      }

      .cls-6 {
        fill: url(#Degradado_sin_nombre_69);
      }

      .cls-7 {
        fill: url(#Degradado_sin_nombre_2);
      }

      .cls-8 {
        clip-path: url(#clippath);
      }

      .cls-9 {
        fill: none;
      }
    </style>
    <linearGradient id="Degradado_sin_nombre_2" data-name="Degradado sin nombre 2" x1="-2429.29" y1="-1650.61" x2="-2429.29" y2="-1818.56" gradientTransform="translate(-1675.72 2440.39) rotate(90)" gradientUnits="userSpaceOnUse">
      <stop offset=".17" stop-color="#efc981"/>
      <stop offset=".39" stop-color="#f2d78f"/>
      <stop offset=".73" stop-color="#c58511"/>
      <stop offset=".9" stop-color="#e4b76c"/>
      <stop offset=".95" stop-color="#eec687"/>
    </linearGradient>
    <clipPath id="clippath">
      <rect class="cls-9" x="-101.2" y="90.7" width="312.67" height="205.73"/>
    </clipPath>
    <linearGradient id="Degradado_sin_nombre_69" data-name="Degradado sin nombre 69" x1="-28.87" y1="453.89" x2="919.47" y2="453.89" gradientUnits="userSpaceOnUse">
      <stop offset="0" stop-color="#d9a338"/>
      <stop offset=".33" stop-color="#f7edda"/>
      <stop offset=".64" stop-color="#d9a338"/>
      <stop offset="1" stop-color="#b1872e"/>
    </linearGradient>
    <linearGradient id="Degradado_sin_nombre_69-2" data-name="Degradado sin nombre 69" x1="-43.19" y1="449.41" x2="939.79" y2="449.41" xlink:href="#Degradado_sin_nombre_69"/>
    <linearGradient id="Degradado_sin_nombre_69-3" data-name="Degradado sin nombre 69" x1="-57.3" y1="444.61" x2="960.32" y2="444.61" xlink:href="#Degradado_sin_nombre_69"/>
    <linearGradient id="Degradado_sin_nombre_69-4" data-name="Degradado sin nombre 69" x1="-71.15" y1="439.47" x2="981.05" y2="439.47" xlink:href="#Degradado_sin_nombre_69"/>
    <linearGradient id="Degradado_sin_nombre_69-5" data-name="Degradado sin nombre 69" x1="-84.69" y1="433.98" x2="1001.94" y2="433.98" xlink:href="#Degradado_sin_nombre_69"/>
    <linearGradient id="Degradado_sin_nombre_69-6" data-name="Degradado sin nombre 69" x1="-97.88" y1="428.14" x2="1022.95" y2="428.14" xlink:href="#Degradado_sin_nombre_69"/>
  </defs>
  <rect class="cls-7" x="3.88" y="6.05" width="143.11" height="10.11"/>
  <g class="cls-8">
    <g>
      <path class="cls-6" d="m243.42,895.12c-.55,0-1.07-.29-1.34-.78L-28.67,414.51c-.35-.61-.23-1.38.28-1.87L388.48,13.09c.45-.43,1.12-.55,1.69-.3l528.39,232.88c.65.28,1.01.97.9,1.66l-90.31,543.48c-.11.64-.61,1.15-1.25,1.27l-584.2,103.01c-.09.02-.18.02-.27.02ZM-25.4,414.04l269.62,477.83,582.05-102.63,89.94-541.23L389.87,16.03-25.4,414.04Z"/>
      <path class="cls-2" d="m220.03,901.34c-.57,0-1.1-.32-1.37-.83L-43.02,396.41c-.32-.63-.19-1.39.34-1.86L401.2-2.12c.47-.42,1.14-.51,1.7-.24l536.02,258.95c.63.31.98,1,.84,1.69l-112.6,556.7c-.13.64-.65,1.13-1.3,1.22l-605.61,85.11c-.07.01-.14.01-.21.01ZM-39.73,396.05l260.63,502.07,603.45-84.81,112.15-554.46L402.49.87-39.73,396.05Z"/>
      <path class="cls-1" d="m195.72,906.9c-.59,0-1.13-.34-1.39-.88L-57.15,377.24c-.3-.64-.14-1.4.4-1.85L414.85-17.32c.48-.4,1.15-.47,1.71-.18l542.94,286.08c.62.33.94,1.04.78,1.72l-136.04,569.52c-.15.64-.69,1.11-1.34,1.18l-627.02,65.9c-.05,0-.11,0-.16,0ZM-53.85,376.99l250.5,526.72,624.85-65.67,135.51-567.29L416.03-14.29-53.85,376.99Z"/>
      <path class="cls-3" d="m170.46,911.76c-.61,0-1.17-.36-1.41-.93L-71.02,356.98c-.28-.65-.09-1.4.47-1.83L429.46-32.5c.5-.38,1.17-.43,1.71-.12l549.1,314.28c.61.35.91,1.07.72,1.75l-160.66,581.88c-.18.63-.73,1.08-1.38,1.13l-648.39,45.34s-.07,0-.11,0ZM-67.72,356.85l239.16,551.76,646.22-45.19,160.05-579.68L430.54-29.43-67.72,356.85Z"/>
      <path class="cls-5" d="m144.27,915.86c-.63,0-1.2-.39-1.44-.98L-84.59,335.61c-.26-.65-.04-1.4.54-1.81L445.07-47.61c.51-.36,1.18-.39,1.71-.06l554.43,343.56c.6.37.87,1.1.66,1.77l-186.46,593.73c-.2.62-.76,1.06-1.41,1.08l-669.67,23.38s-.04,0-.05,0ZM-81.28,335.59l226.59,577.15,667.49-23.31,185.77-591.55L446.03-44.5-81.28,335.59Z"/>
      <path class="cls-4" d="m807.93,919.14H117.13c-.65,0-1.24-.41-1.45-1.03L-97.79,313.1c-.23-.66.01-1.4.6-1.79L461.68-62.61c.52-.35,1.2-.35,1.72,0l558.87,373.92c.58.39.83,1.13.6,1.79l-213.47,605.01c-.22.62-.8,1.03-1.45,1.03Zm-689.71-3.08h688.62l212.71-602.86L462.53-59.48-94.48,313.2,118.22,916.06Z"/>
    </g>
  </g>
</svg>