<?xml version="1.0" encoding="UTF-8"?>
<svg id="Capa_1" data-name="Capa 1" xmlns="http://www.w3.org/2000/svg" xmlns:xlink="http://www.w3.org/1999/xlink" viewBox="0 0 312.67 212.18">
  <defs>
    <style>
      .cls-1 {
        fill: url(#Degradado_sin_nombre_69-10);
      }

      .cls-2 {
        fill: url(#Degradado_sin_nombre_69-3);
      }

      .cls-3 {
        fill: url(#Degradado_sin_nombre_69-2);
      }

      .cls-4 {
        fill: url(#Degradado_sin_nombre_69-4);
      }

      .cls-5 {
        fill: url(#Degradado_sin_nombre_69-6);
      }

      .cls-6 {
        fill: url(#Degradado_sin_nombre_69-8);
      }

      .cls-7 {
        fill: url(#Degradado_sin_nombre_69-11);
      }

      .cls-8 {
        fill: url(#Degradado_sin_nombre_69-5);
      }

      .cls-9 {
        fill: url(#Degradado_sin_nombre_69);
      }

      .cls-10 {
        fill: url(#Degradado_sin_nombre_69-7);
      }

      .cls-11 {
        clip-path: url(#clippath);
      }

      .cls-12 {
        fill: none;
      }

      .cls-13 {
        fill: url(#Degradado_sin_nombre_69-9);
      }
    </style>
    <clipPath id="clippath">
      <rect class="cls-12" y="6.45" width="312.67" height="205.73"/>
    </clipPath>
    <linearGradient id="Degradado_sin_nombre_69" data-name="Degradado sin nombre 69" x1="145.78" y1="387.44" x2="928.07" y2="387.44" gradientUnits="userSpaceOnUse">
      <stop offset="0" stop-color="#d9a338"/>
      <stop offset=".33" stop-color="#f7edda"/>
      <stop offset=".64" stop-color="#d9a338"/>
      <stop offset="1" stop-color="#b1872e"/>
    </linearGradient>
    <linearGradient id="Degradado_sin_nombre_69-2" data-name="Degradado sin nombre 69" x1="130.97" y1="384.45" x2="942.21" y2="384.45" xlink:href="#Degradado_sin_nombre_69"/>
    <linearGradient id="Degradado_sin_nombre_69-3" data-name="Degradado sin nombre 69" x1="116.19" y1="381.19" x2="961.36" y2="381.19" xlink:href="#Degradado_sin_nombre_69"/>
    <linearGradient id="Degradado_sin_nombre_69-4" data-name="Degradado sin nombre 69" x1="101.47" y1="377.64" x2="980.84" y2="377.64" xlink:href="#Degradado_sin_nombre_69"/>
    <linearGradient id="Degradado_sin_nombre_69-5" data-name="Degradado sin nombre 69" x1="86.83" y1="373.79" x2="1000.62" y2="373.79" xlink:href="#Degradado_sin_nombre_69"/>
    <linearGradient id="Degradado_sin_nombre_69-6" data-name="Degradado sin nombre 69" x1="72.34" y1="369.63" x2="1020.68" y2="369.63" xlink:href="#Degradado_sin_nombre_69"/>
    <linearGradient id="Degradado_sin_nombre_69-7" data-name="Degradado sin nombre 69" x1="58.01" y1="365.16" x2="1040.99" y2="365.16" xlink:href="#Degradado_sin_nombre_69"/>
    <linearGradient id="Degradado_sin_nombre_69-8" data-name="Degradado sin nombre 69" x1="43.9" y1="360.36" x2="1061.53" y2="360.36" xlink:href="#Degradado_sin_nombre_69"/>
    <linearGradient id="Degradado_sin_nombre_69-9" data-name="Degradado sin nombre 69" x1="30.05" y1="355.22" x2="1082.26" y2="355.22" xlink:href="#Degradado_sin_nombre_69"/>
    <linearGradient id="Degradado_sin_nombre_69-10" data-name="Degradado sin nombre 69" x1="16.51" y1="349.73" x2="1103.14" y2="349.73" xlink:href="#Degradado_sin_nombre_69"/>
    <linearGradient id="Degradado_sin_nombre_69-11" data-name="Degradado sin nombre 69" x1="3.33" y1="343.88" x2="1124.15" y2="343.88" xlink:href="#Degradado_sin_nombre_69"/>
  </defs>
  <g class="cls-11">
    <g>
      <path class="cls-9" d="m447.84,771.71c-.45,0-.89-.2-1.19-.56L146.13,405.75c-.45-.54-.47-1.32-.05-1.89L439.04,3.79c.37-.5,1-.73,1.61-.59l481.58,118.15c.68.17,1.17.78,1.17,1.48l4.67,473.09c0,.65-.4,1.24-1.01,1.46l-478.69,174.23c-.17.06-.35.09-.53.09ZM149.27,404.71l299.06,363.64,476.64-173.48-4.64-470.8L440.92,6.45,149.27,404.71Z"/>
      <path class="cls-3" d="m428.99,780.46c-.47,0-.93-.22-1.23-.6L131.29,392.57c-.43-.56-.42-1.34.01-1.89L447.54-10.97c.38-.49,1.03-.7,1.63-.53l491.92,139.06c.68.19,1.14.82,1.12,1.52l-12.21,487.59c-.02.65-.44,1.22-1.07,1.43l-499.46,162.29c-.16.05-.32.08-.48.08ZM134.47,391.64l295.08,385.47,497.39-161.61,12.15-485.3L449.32-8.25,134.47,391.64Z"/>
      <path class="cls-2" d="m409.26,788.79c-.49,0-.96-.23-1.26-.65L116.47,378.45c-.41-.57-.38-1.35.08-1.89L456.82-25.87c.4-.48,1.05-.66,1.65-.47l501.82,160.97c.67.22,1.11.86,1.07,1.56l-30.12,501.92c-.04.65-.49,1.21-1.11,1.39l-520.44,149.23c-.14.04-.28.06-.42.06ZM119.68,377.64l290.2,407.83,518.34-148.63,29.98-499.64L458.51-23.09,119.68,377.64Z"/>
      <path class="cls-4" d="m388.62,796.67c-.51,0-1-.25-1.29-.69L101.72,363.38c-.39-.59-.33-1.36.14-1.88L466.92-40.89c.42-.46,1.08-.63,1.66-.41l511.23,183.9c.66.24,1.08.9,1.01,1.6l-49.1,516.05c-.06.65-.53,1.19-1.16,1.35l-541.57,135.03c-.12.03-.25.05-.37.05ZM104.95,362.68l284.36,430.68,539.46-134.5,48.88-513.77L468.51-38.05,104.95,362.68Z"/>
      <path class="cls-8" d="m367.08,804.04c-.53,0-1.03-.27-1.32-.74L87.06,347.33c-.37-.6-.28-1.37.21-1.88L477.86-56c.43-.45,1.09-.59,1.68-.36l520.11,207.87c.65.26,1.05.93.96,1.63l-69.15,529.92c-.08.65-.57,1.17-1.21,1.31l-562.84,119.64c-.11.02-.21.03-.32.03ZM90.31,346.74l277.52,454.02,560.71-119.18,68.86-527.65L479.35-53.11,90.31,346.74Z"/>
      <path class="cls-5" d="m344.62,810.86c-.55,0-1.07-.29-1.34-.78L72.53,330.26c-.35-.61-.23-1.38.28-1.87L489.68-71.17c.45-.43,1.12-.55,1.69-.3l528.39,232.88c.65.28,1.01.97.9,1.66l-90.31,543.48c-.11.64-.61,1.15-1.25,1.27l-584.2,103.01c-.09.02-.18.02-.27.02ZM75.81,329.79l269.62,477.83,582.05-102.63,89.94-541.23L491.07-68.23,75.81,329.79Z"/>
      <path class="cls-10" d="m321.24,817.08c-.57,0-1.1-.32-1.37-.83L58.18,312.15c-.32-.63-.19-1.39.34-1.86L502.4-86.37c.47-.42,1.14-.51,1.7-.24l536.02,258.95c.63.31.98,1,.84,1.69l-112.6,556.7c-.13.64-.65,1.13-1.3,1.22l-605.61,85.11c-.07.01-.14.01-.21.01ZM61.47,311.79l260.63,502.07,603.45-84.81,112.15-554.46L503.69-83.39,61.47,311.79Z"/>
      <path class="cls-6" d="m296.92,822.65c-.59,0-1.13-.34-1.39-.88L44.05,292.98c-.3-.64-.14-1.4.4-1.85L516.05-101.58c.48-.4,1.15-.47,1.71-.18l542.94,286.08c.62.33.94,1.04.78,1.72l-136.04,569.52c-.15.64-.69,1.11-1.34,1.18l-627.02,65.9c-.05,0-.11,0-.16,0ZM47.35,292.74l250.5,526.72,624.85-65.67,135.51-567.29L517.23-98.55,47.35,292.74Z"/>
      <path class="cls-13" d="m271.66,827.51c-.61,0-1.17-.36-1.41-.93L30.18,272.72c-.28-.65-.09-1.4.47-1.83L530.66-116.75c.5-.38,1.17-.43,1.71-.12l549.1,314.28c.61.35.91,1.07.72,1.75l-160.66,581.88c-.18.63-.73,1.08-1.38,1.13l-648.39,45.34s-.07,0-.11,0ZM33.48,272.59l239.16,551.76,646.22-45.19,160.05-579.68L531.74-113.69,33.48,272.59Z"/>
      <path class="cls-1" d="m245.47,831.61c-.63,0-1.2-.39-1.44-.98L16.61,251.35c-.26-.65-.04-1.4.54-1.81L546.27-131.86c.51-.36,1.18-.39,1.71-.06l554.43,343.56c.6.37.87,1.1.66,1.77l-186.46,593.73c-.2.62-.76,1.06-1.41,1.08l-669.67,23.38s-.04,0-.05,0ZM19.92,251.34l226.59,577.15,667.49-23.31,185.77-591.55L547.23-128.76,19.92,251.34Z"/>
      <path class="cls-7" d="m909.14,834.89H218.33c-.65,0-1.24-.41-1.45-1.03L3.41,228.85c-.23-.66.01-1.4.6-1.79L562.88-146.87c.52-.35,1.2-.35,1.72,0l558.87,373.92c.58.39.83,1.13.6,1.79l-213.47,605.01c-.22.62-.8,1.03-1.45,1.03Zm-689.71-3.08h688.62l212.71-602.86L563.74-143.73,6.72,228.95l212.71,602.86Z"/>
    </g>
  </g>
</svg>